<svg width="8" height="11" viewBox="0 0 8 11" fill="none" xmlns="http://www.w3.org/2000/svg">
<path d="M4 0C1.79175 0 0 1.58395 0 3.53571C0 6.67857 4 11 4 11C4 11 8 6.67857 8 3.53571C8 1.58395 6.20825 0 4 0ZM4 5.5C3.68355 5.5 3.37421 5.40784 3.11109 5.23517C2.84797 5.0625 2.64289 4.81707 2.52179 4.52993C2.40069 4.24279 2.36901 3.92683 2.43074 3.622C2.49248 3.31717 2.64487 3.03717 2.86863 2.8174C3.09239 2.59764 3.37749 2.44797 3.68786 2.38734C3.99823 2.3267 4.31993 2.35782 4.61229 2.47676C4.90465 2.5957 5.15454 2.79711 5.33035 3.05553C5.50616 3.31395 5.6 3.61777 5.6 3.92857C5.59954 4.3452 5.43082 4.74464 5.13086 5.03924C4.8309 5.33384 4.4242 5.49955 4 5.5Z" fill="#393839"/>
</svg>
