<svg width="19" height="20" viewBox="0 0 19 20" fill="none" xmlns="http://www.w3.org/2000/svg">
<path d="M19 18.2692L13.3329 12.3029C14.2462 10.9818 14.7375 9.38962 14.736 7.75577C14.736 3.47933 11.4306 0 7.36798 0C3.30536 0 0 3.47933 0 7.75577C0 12.0322 3.30536 15.5115 7.36798 15.5115C8.92014 15.5131 10.4327 14.996 11.6877 14.0346L17.3558 20L19 18.2692ZM7.36798 13.062C6.37085 13.0621 5.39608 12.7509 4.56696 12.1679C3.73784 11.5848 3.0916 10.756 2.70997 9.78631C2.32834 8.81661 2.22847 7.74956 2.42298 6.72011C2.61749 5.69066 3.09764 4.74505 3.80272 4.00286C4.5078 3.26067 5.40613 2.75525 6.38411 2.5505C7.36209 2.34576 8.37578 2.45089 9.29699 2.8526C10.2182 3.25431 11.0056 3.93457 11.5595 4.80733C12.1134 5.68009 12.409 6.70616 12.4089 7.75577C12.4073 9.16257 11.8757 10.5113 10.9307 11.506C9.98571 12.5008 8.70444 13.0604 7.36798 13.062Z" fill="#393839"/>
</svg>
